<svg width="408" height="40" viewBox="0 0 408 40" fill="none" xmlns="http://www.w3.org/2000/svg">
  <g clip-path="url(#clip0_628_787)">
    <rect width="408" height="40" fill="#32E685" fill-opacity="0.08" />
    <path
      d="M374.158 -17.1635L266.714 -150.199L262.11 -155.811L156.178 -290.054M367.815 -14.0185L261.337 -145.844L256.793 -151.38L151.827 -284.413M361.479 -10.942L255.967 -141.557L251.484 -147.018L147.484 -278.841M355.143 -7.86464L250.597 -137.27L246.113 -142.731L143.012 -273.351M348.746 -4.8642L245.174 -133.127L240.751 -138.512L138.616 -267.923M342.274 -1.80256L239.668 -128.856L235.305 -134.165L134.204 -262.358M336.007 1.28198L234.367 -124.561L230.004 -129.87L129.801 -256.861M329.611 4.28308L228.936 -120.35L224.634 -125.584L125.389 -251.296M323.124 7.48056L223.416 -115.942L219.174 -121.1L120.902 -245.67M317.023 10.308L218.198 -111.776L213.956 -116.934L116.575 -240.234M310.528 13.5738L212.759 -107.497L208.578 -112.579L112.171 -234.737M304.193 16.6499L207.39 -103.211L203.269 -108.218L107.76 -229.172M297.856 19.7272L201.952 -98.9309L197.831 -103.938L103.356 -223.675M291.376 22.8565L196.506 -94.5839L192.445 -99.5151L99.0119 -218.103M285.049 25.8652L191.152 -90.4331L187.152 -95.2887L94.5408 -212.613M278.713 28.9419L185.782 -86.1463L181.782 -91.0019L90.1369 -207.116M272.384 31.9509L180.42 -81.9272L176.48 -86.7072L85.8008 -201.612M265.974 35.0881L174.975 -77.58L171.095 -82.2843L81.3825 -195.979M259.637 38.1649L169.612 -73.361L165.732 -78.0653L76.9853 -190.55M253.241 41.1657L164.174 -69.0821L160.355 -73.7108L72.5064 -184.993M246.83 44.303L158.737 -64.8027L154.978 -69.3558L68.0952 -179.428M240.493 47.3799L153.366 -60.5157L149.607 -65.0688L63.6906 -173.931M234.007 50.5768L148.005 -56.2975L144.306 -60.775L59.3557 -168.427M227.77 53.3893L142.583 -52.1542L138.945 -56.5561L54.892 -163.005M221.494 56.5421L137.273 -47.7914L133.703 -52.1855L50.6162 -157.425M215.082 59.6791L131.827 -43.4442L128.249 -47.7705L46.1286 -151.799M208.679 62.7481L126.397 -39.233L122.88 -43.4837L41.7256 -146.303M202.343 65.8247L121.02 -34.8784L117.571 -39.1213L37.3828 -140.73M195.87 68.8863L115.521 -30.6747L112.064 -34.8497L32.7738 -135.256M189.543 71.8952L110.16 -26.4557L106.763 -30.555L28.4389 -129.751M183.2 75.0401L104.783 -22.1008L101.454 -26.1924L24.0962 -124.179M176.855 78.1844L99.4045 -17.7464L96.0684 -21.7701L19.6761 -118.546M170.528 81.1931L94.0427 -13.5275L90.767 -17.4756L15.288 -113.185M164.131 84.1948L88.6123 -9.31581L85.4047 -13.2563L10.8765 -107.62M157.795 87.2711L83.2496 -5.09741L80.0344 -8.9698L6.47229 -102.123M151.376 90.4761L77.8124 -0.818312L74.6575 -4.61511L2.06144 -96.5584M145.131 93.3569L72.4501 3.40089L69.3632 -0.388278L-2.34249 -91.0611M138.72 96.4942L67.0051 7.74835L63.9105 4.02725L-6.74581 -85.564M132.452 99.5785L61.7105 11.9747L58.6764 8.32919L-11.0819 -80.0595M125.974 102.708L56.1981 16.3139L53.232 12.6759L-15.5602 -74.5027M119.645 105.717L50.8356 20.5329L47.8618 16.963L-19.972 -68.9374M113.241 108.786L45.3975 24.8124L42.484 21.3181L-24.3761 -63.4403M106.897 111.93L40.0199 29.1667L37.1744 25.6801L-28.7196 -57.8682M100.585 114.803L34.6809 33.1819L31.8278 29.7633L-33.1682 -52.5826M94.2406 117.948L29.3031 37.5369L26.5105 34.1939L-37.5195 -46.9418M87.7614 121.077L23.7899 41.8763L21.0653 38.5409L-41.9986 -41.3848M81.5014 124.094L18.496 46.1028L15.8317 42.8431L-46.2662 -35.8725M75.0901 127.231L13.0507 50.4496L10.3788 47.2579L-50.753 -30.2476M68.822 130.315L7.75621 54.6765L5.15235 51.4924L-55.0815 -24.8107M62.4181 133.384L2.31836 58.9555L-0.225152 55.847L-59.4929 -19.246M56.0894 136.393L-3.0442 63.1744L-5.59534 60.1339L-63.897 -13.7489M49.4671 139.576L-8.70045 67.567L-11.1836 64.5341L-68.5193 -8.13865M43.0632 142.645L-14.1383 71.8463L-16.561 68.8891L-72.9307 -2.57356M37.0074 145.684L-19.2205 76.0272L-21.6509 73.1379L-77.1224 2.87769M30.6106 148.685L-24.6512 80.2387L-27.0136 77.3571L-81.5191 8.30703"
      stroke="url(#paint0_linear_628_787)"
      stroke-miterlimit="10"
      stroke-linecap="round"
    />
  </g>
  <defs>
    <linearGradient id="paint0_linear_628_787" x1="178.246" y1="-293.021" x2="126.901" y2="164.826" gradientUnits="userSpaceOnUse">
      <stop offset="0.4115" stop-color="#32E685" />
      <stop offset="0.9988" stop-color="#32E685" />
    </linearGradient>
    <clipPath id="clip0_628_787">
      <rect width="408" height="40" fill="white" />
    </clipPath>
  </defs>
</svg>
