<svg width="292" height="40" viewBox="0 0 292 40" fill="none" xmlns="http://www.w3.org/2000/svg">
  <g clip-path="url(#clip0_628_205)">
    <rect width="292" height="40" fill="#32E685" fill-opacity="0.08" />
    <path
      d="M446.158 -67.1635L338.714 -200.199L334.11 -205.811L228.178 -340.054M439.815 -64.0185L333.337 -195.844L328.793 -201.38L223.827 -334.413M433.479 -60.942L327.967 -191.557L323.484 -197.018L219.484 -328.841M427.143 -57.8646L322.597 -187.27L318.113 -192.731L215.012 -323.351M420.746 -54.8642L317.174 -183.127L312.751 -188.512L210.616 -317.923M414.274 -51.8026L311.668 -178.856L307.305 -184.165L206.204 -312.358M408.007 -48.718L306.367 -174.561L302.004 -179.87L201.801 -306.861M401.611 -45.7169L300.936 -170.35L296.634 -175.584L197.389 -301.296M395.124 -42.5194L295.416 -165.942L291.174 -171.1L192.902 -295.67M389.023 -39.692L290.198 -161.776L285.956 -166.934L188.575 -290.234M382.528 -36.4262L284.759 -157.497L280.578 -162.579L184.171 -284.737M376.193 -33.3501L279.39 -153.211L275.269 -158.218L179.76 -279.172M369.856 -30.2728L273.952 -148.931L269.831 -153.938L175.356 -273.675M363.376 -27.1435L268.506 -144.584L264.445 -149.515L171.012 -268.103M357.049 -24.1348L263.152 -140.433L259.152 -145.289L166.541 -262.613M350.713 -21.0581L257.782 -136.146L253.782 -141.002L162.137 -257.116M344.384 -18.0491L252.42 -131.927L248.48 -136.707L157.801 -251.612M337.974 -14.9119L246.975 -127.58L243.095 -132.284L153.383 -245.979M331.637 -11.8351L241.612 -123.361L237.732 -128.065L148.985 -240.55M325.241 -8.83426L236.174 -119.082L232.355 -123.711L144.506 -234.993M318.83 -5.69698L230.737 -114.803L226.978 -119.356L140.095 -229.428M312.493 -2.62012L225.366 -110.516L221.607 -115.069L135.691 -223.931M306.007 0.576759L220.005 -106.298L216.306 -110.775L131.356 -218.427M299.77 3.38933L214.583 -102.154L210.945 -106.556L126.892 -213.005M293.494 6.54206L209.273 -97.7914L205.703 -102.185L122.616 -207.425M287.082 9.67905L203.827 -93.4442L200.249 -97.7705L118.129 -201.799M280.679 12.7481L198.397 -89.233L194.88 -93.4837L113.726 -196.303M274.343 15.8247L193.02 -84.8784L189.571 -89.1213L109.383 -190.73M267.87 18.8863L187.521 -80.6747L184.064 -84.8497L104.774 -185.256M261.543 21.8952L182.16 -76.4557L178.763 -80.555L100.439 -179.751M255.2 25.0401L176.783 -72.1008L173.454 -76.1924L96.0962 -174.179M248.855 28.1844L171.404 -67.7464L168.068 -71.7701L91.6761 -168.546M242.528 31.1931L166.043 -63.5275L162.767 -67.4756L87.288 -163.185M236.131 34.1948L160.612 -59.3158L157.405 -63.2563L82.8765 -157.62M229.795 37.2711L155.25 -55.0974L152.034 -58.9698L78.4723 -152.123M223.376 40.4761L149.812 -50.8183L146.657 -54.6151L74.0614 -146.558M217.131 43.3569L144.45 -46.5991L141.363 -50.3883L69.6575 -141.061M210.72 46.4942L139.005 -42.2517L135.911 -45.9728L65.2542 -135.564M204.452 49.5785L133.71 -38.0253L130.676 -41.6708L60.9181 -130.059M197.974 52.7075L128.198 -33.6861L125.232 -37.3241L56.4398 -124.503M191.645 55.7165L122.836 -29.4671L119.862 -33.037L52.028 -118.937M185.241 58.7859L117.397 -25.1876L114.484 -28.6819L47.6239 -113.44M178.897 61.9301L112.02 -20.8333L109.174 -24.3199L43.2804 -107.868M172.585 64.8032L106.681 -16.8181L103.828 -20.2367L38.8318 -102.583M166.241 67.9482L101.303 -12.4631L98.5105 -15.8061L34.4805 -96.9418M159.761 71.0774L95.7899 -8.12373L93.0653 -11.4591L30.0014 -91.3848M153.501 74.0939L90.496 -3.89716L87.8317 -7.15693L25.7338 -85.8725M147.09 77.2307L85.0507 0.449641L82.3788 -2.74206L21.247 -80.2476M140.822 80.3153L79.7562 4.67645L77.1524 1.49238L16.9185 -74.8107M134.418 83.3843L74.3184 8.95545L71.7748 5.84698L12.5071 -69.246M128.089 86.3932L68.9558 13.1744L66.4047 10.1339L8.10299 -63.7489M121.467 89.5756L63.2995 17.567L60.8164 14.5341L3.48072 -58.1387M115.063 92.6448L57.8617 21.8463L55.439 18.8891L-0.930682 -52.5736M109.007 95.6836L52.7795 26.0272L50.3491 23.1379L-5.12239 -47.1223M102.611 98.6851L47.3488 30.2387L44.9864 27.3571L-9.5191 -41.693"
      stroke="url(#paint0_linear_628_205)"
      stroke-miterlimit="10"
      stroke-linecap="round"
    />
  </g>
  <defs>
    <linearGradient id="paint0_linear_628_205" x1="250.246" y1="-343.021" x2="198.901" y2="114.826" gradientUnits="userSpaceOnUse">
      <stop offset="0.4115" stop-color="#32E685" />
      <stop offset="0.9988" stop-color="#32E685" />
    </linearGradient>
    <clipPath id="clip0_628_205">
      <rect width="292" height="40" fill="white" />
    </clipPath>
  </defs>
</svg>
