<svg width="292" height="40" viewBox="0 0 292 40" fill="none" xmlns="http://www.w3.org/2000/svg">
  <g clip-path="url(#clip0_628_211)">
    <rect width="292" height="40" fill="#C890FF" fill-opacity="0.08" />
    <path
      d="M-100.579 -89.2058L24.7522 -205.545L30.1101 -210.443L154.116 -328.194M-94.7492 -85.1878L29.4528 -200.468L34.74 -205.299L157.617 -321.99M-88.9175 -81.2386L34.1557 -195.459L39.3722 -200.224L161.121 -315.855M-83.0851 -77.2884L38.8592 -190.449L44.0759 -195.213L164.764 -309.782M-77.1823 -73.4058L43.6353 -185.575L48.7815 -190.273L168.34 -303.782M-71.2136 -69.4519L48.4753 -180.561L53.5508 -185.193L171.913 -297.645M-65.4504 -65.5044L53.1094 -175.553L58.185 -180.186L175.486 -291.575M-59.548 -61.6212L57.883 -170.61L62.888 -175.177L179.058 -285.438M-53.5838 -57.5307L62.7183 -165.46L67.6527 -169.96L182.696 -279.23M-47.9492 -53.8615L67.2883 -160.592L72.2226 -165.092L186.204 -273.232M-41.9864 -49.7022L72.0603 -155.58L76.9241 -160.014L189.778 -267.162M-36.155 -45.7534L76.7628 -150.572L81.5561 -154.939L193.35 -261.025M-30.3228 -41.8033L81.5345 -145.56L86.3278 -149.927L196.924 -254.956M-24.3557 -37.7813L86.3044 -140.48L91.0271 -144.781L200.429 -248.82M-18.5223 -33.9003L91.0109 -135.607L95.6632 -139.842L204.07 -242.749M-12.6904 -29.9508L95.7141 -130.598L100.366 -134.833L207.645 -236.68M-6.85598 -26.0694L100.42 -125.657L105.001 -129.826L211.151 -230.613M-0.958533 -22.0494L105.188 -120.577L109.699 -124.68L214.72 -224.407M4.87441 -18.0997L109.894 -115.636L114.406 -119.738L218.297 -218.406M10.7764 -14.2168L114.665 -110.625L119.106 -114.661L221.937 -212.266M16.6743 -10.1967L119.437 -105.613L123.807 -109.583L225.509 -206.129M22.5071 -6.24693L124.14 -100.604L128.511 -104.574L229.084 -200.059M28.4706 -2.15709L128.845 -95.6634L133.144 -99.5673L232.589 -193.993M34.2424 1.51682L133.62 -90.7887L137.849 -94.6263L236.233 -187.99M40.004 5.53293L138.253 -85.7127L142.414 -89.5524L239.669 -181.856M45.9027 9.55291L143.023 -80.6328L147.181 -84.4042L243.308 -175.648M51.8023 13.5044L147.796 -75.6899L151.884 -79.3951L246.881 -169.579M57.6338 17.4537L152.496 -70.6125L156.516 -74.3197L250.384 -163.444M63.6036 21.4077L157.339 -65.667L161.357 -69.3059L254.165 -157.368M69.4368 25.2889L162.044 -60.726L165.99 -64.2986L257.67 -151.301M75.2658 29.3068L166.744 -55.6483L170.622 -59.223L261.173 -145.166M81.0967 33.3244L171.446 -50.5708L175.322 -54.0773L264.744 -138.96M86.9302 37.2054L176.151 -45.63L179.956 -49.0702L268.322 -133.028M92.8328 41.0892L180.924 -40.6864L184.661 -44.1287L271.894 -126.89M98.6652 45.0383L185.63 -35.7458L189.365 -39.1197L275.469 -120.821M104.561 49.1265L190.401 -30.7345L194.065 -34.0422L279.04 -114.684M110.331 52.8691L195.106 -25.7932L198.702 -29.1031L282.614 -108.614M116.228 56.8893L199.875 -20.7132L203.469 -23.9546L286.188 -102.545M121.992 60.8366L204.512 -15.7745L208.036 -18.9496L289.694 -96.4779M127.958 64.8581L209.349 -10.693L212.804 -13.8704L293.334 -90.3388M133.792 68.7396L214.054 -5.75181L217.507 -8.86079L296.906 -84.2009M139.693 72.6915L218.826 -0.740074L222.208 -3.78274L300.481 -78.1315M145.523 76.7089L223.527 4.33715L226.841 1.29232L303.984 -71.9966M151.361 80.4535L228.239 9.07321L231.55 6.09675L307.633 -66.1302M157.191 84.4716L232.94 14.1511L236.181 11.2409L311.135 -59.9261M163.157 88.4935L237.777 19.2329L240.95 16.3205L314.775 -53.7867M168.923 92.3725L242.414 24.1718L245.516 21.3256L318.212 -47.7218M174.821 96.3922L247.183 29.2512L250.283 26.4735L321.85 -41.5142M180.584 100.34L251.82 34.1903L254.852 31.4105L325.359 -35.5151M186.485 104.291L256.591 39.2016L259.553 36.488L328.931 -29.3778M192.319 108.173L261.297 44.1427L264.256 41.4974L332.505 -23.3085M198.42 112.268L266.268 49.2976L269.159 46.6502L336.279 -17.096M204.32 116.219L271.04 54.3092L273.86 51.728L339.851 -10.9583M209.88 120.091L275.473 59.1725L278.291 56.6597L343.222 -4.9646M215.783 123.975L280.247 64.1161L282.997 61.6011L346.799 1.03665"
      stroke="url(#paint0_linear_628_211)"
      stroke-miterlimit="10"
      stroke-linecap="round"
    />
  </g>
  <defs>
    <linearGradient id="paint0_linear_628_211" x1="154.871" y1="80.7513" x2="152.741" y2="-328.498" gradientUnits="userSpaceOnUse">
      <stop offset="0.265625" stop-color="#C890FF" />
      <stop offset="1" stop-color="#7919FF" />
    </linearGradient>
    <clipPath id="clip0_628_211">
      <rect width="292" height="40" fill="white" />
    </clipPath>
  </defs>
</svg>
