<svg width="292" height="40" viewBox="0 0 292 40" fill="none" xmlns="http://www.w3.org/2000/svg">
  <g clip-path="url(#clip0_628_199)">
    <rect width="292" height="40" fill="#C890FF" fill-opacity="0.08" />
    <path
      d="M383.52 260.759L332.419 97.5675L330.197 90.6571L280.946 -73.1023M376.465 261.355L325.818 99.6443L323.625 92.8265L274.829 -69.4525M369.442 261.891L319.25 101.66L317.085 94.935L268.743 -65.8639M362.419 262.427L312.681 103.677L310.515 96.9514L262.567 -62.3992M355.367 262.87L306.116 105.539L303.979 98.9063L256.485 -58.9641M348.223 263.342L299.426 107.491L297.317 100.951L250.339 -55.4071M341.261 263.91L292.918 109.54L290.809 102.999L244.225 -51.9105M334.21 264.353L286.321 111.463L284.241 105.016L238.078 -48.3537M327.002 264.946L279.568 113.536L277.516 107.181L231.84 -44.7684M320.289 265.336L273.185 115.496L271.133 109.14L225.818 -41.3004M313.048 265.989L266.555 117.48L264.532 111.217L219.704 -37.8041M306.026 266.525L259.987 119.495L257.992 113.325L213.558 -34.2476M299.003 267.061L253.357 121.48L251.362 115.31L207.443 -30.751M291.826 267.593L246.696 123.524L244.729 117.446L201.357 -27.1624M284.836 268.068L240.192 125.419L238.254 119.434L195.183 -23.6979M277.813 268.604L233.623 127.435L231.685 121.45L189.068 -20.2016M270.822 269.08L227.086 129.391L225.176 123.498L183.014 -16.673M263.707 269.644L220.426 131.436L218.544 125.636L176.836 -13.0555M256.683 270.18L213.888 133.391L212.007 127.591L170.753 -9.61993M249.632 270.623L207.26 135.375L205.406 129.667L164.546 -6.09529M242.517 271.188L200.631 137.359L198.806 131.744L158.4 -2.53831M235.493 271.723L194.061 139.375L192.236 133.76L152.285 0.957915M228.286 272.316L187.526 141.331L185.729 135.808L146.232 4.48605M221.452 272.642L180.961 143.194L179.193 137.764L140.09 7.89019M214.457 273.271L174.42 145.303L172.713 139.905L134.064 11.5113M207.341 273.834L167.758 147.347L166.019 142.01L127.825 15.0962M200.258 274.338L161.162 149.271L159.451 144.026L121.711 18.5927M193.235 274.874L154.562 151.347L152.911 146.135L115.626 22.1817M186.09 275.346L147.903 153.239L146.221 148.086L109.329 25.5814M179.1 275.822L141.367 155.195L139.713 150.135L103.276 29.1104M172.046 276.418L134.767 157.272L133.173 152.244L97.1903 32.6996M164.99 277.014L128.166 159.347L126.54 154.38L91.0111 36.3161M157.999 277.489L121.63 161.303L120.032 156.428L84.9612 39.6916M150.948 277.933L115.032 163.227L113.495 158.384L78.8145 43.2489M143.924 278.468L108.495 165.182L106.926 160.4L72.7 46.7446M136.777 279.093L101.867 167.166L100.326 162.476L66.5541 50.3016M129.911 279.48L95.3299 169.122L93.8497 164.464L60.4395 53.7982M122.796 280.045L88.6691 171.167L87.1567 166.57L54.3255 57.2949M115.833 280.612L82.1926 173.155L80.7087 168.65L48.2714 60.8231M108.658 281.144L75.4722 175.167L74.0488 170.694L42.0657 64.3478M101.667 281.62L68.9352 177.123L67.4797 172.71L35.9189 67.9048M94.5826 282.124L62.3057 179.107L60.8785 174.787L29.8041 71.4011M87.5276 282.719L55.705 181.183L54.3383 176.895L23.7183 74.9895M80.6011 283.074L49.2647 182.958L47.866 178.73L17.6399 78.2729M73.5456 283.671L42.6637 185.034L41.2934 180.899L11.5215 81.9223M66.37 284.203L35.9424 187.047L34.6325 182.944L5.31504 85.4469M59.4397 284.71L29.4664 189.034L28.1849 185.024L-0.678253 89.0075M52.3245 285.274L22.8055 191.079L21.492 187.129L-6.91678 92.5924M45.3616 285.843L16.329 193.067L15.0759 189.149L-12.9391 96.0606M38.2782 286.346L9.69992 195.05L8.47521 191.225L-19.0854 99.6172M31.2868 286.821L3.16292 197.006L1.90617 193.241L-25.2001 103.114M23.9586 287.35L-3.71099 199.015L-4.90733 195.283L-31.5592 106.635M16.875 287.854L-10.3402 200.999L-11.5081 197.359L-37.7057 110.192M10.1265 288.458L-16.6024 203.023L-17.8023 199.443L-43.606 113.724M3.07442 288.901L-23.2001 204.946L-24.3396 201.399L-49.6889 117.16"
      stroke="url(#paint0_linear_628_199)"
      stroke-miterlimit="10"
      stroke-linecap="round"
    />
  </g>
  <defs>
    <linearGradient id="paint0_linear_628_199" x1="77.4056" y1="281.592" x2="282.292" y2="-72.6841" gradientUnits="userSpaceOnUse">
      <stop offset="0.265625" stop-color="#C890FF" />
      <stop offset="1" stop-color="#7919FF" />
    </linearGradient>
    <clipPath id="clip0_628_199">
      <rect width="292" height="40" fill="white" />
    </clipPath>
  </defs>
</svg>
